<svg xmlns="http://www.w3.org/2000/svg" viewBox="0 0 256 256" width="256" height="256">
  <rect width="256" height="256" fill="#8b6f47" rx="0"/>
  <g transform="translate(128, 128)">
    <!-- Coffee cup body -->
    <path d="M -40 -20 L -35 50 Q -35 55 -30 55 L 30 55 Q 35 55 35 50 L 40 -20 Z" fill="#c9935f" stroke="#d4a574" stroke-width="2"/>
    <!-- Coffee cup handle -->
    <path d="M 40 0 Q 65 0 65 20 Q 65 40 40 40" fill="none" stroke="#c9935f" stroke-width="4"/>
    <!-- Coffee inside -->
    <ellipse cx="0" cy="-15" rx="32" ry="8" fill="#6b5344" opacity="0.8"/>
    <path d="M -32 -15 L -30 30 Q -30 35 -25 35 L 25 35 Q 30 35 30 30 L 32 -15" fill="#8b6b5c" opacity="0.6"/>
    <!-- Steam bubbles -->
    <circle cx="-15" cy="-35" r="4" fill="#d4a574" opacity="0.7"/>
    <circle cx="0" cy="-40" r="3" fill="#d4a574" opacity="0.6"/>
    <circle cx="15" cy="-35" r="4" fill="#d4a574" opacity="0.7"/>
  </g>
</svg>
